<mxfile host="app.diagrams.net" agent="Mozilla/5.0 (Windows NT 10.0; Win64; x64) AppleWebKit/537.36 (KHTML, like Gecko) Chrome/134.0.0.0 Safari/537.36" version="26.1.0">
  <diagram name="Page-1" id="MzbPQXpYrw0TpJwQprnR">
    <mxGraphModel dx="1434" dy="738" grid="1" gridSize="10" guides="1" tooltips="1" connect="1" arrows="1" fold="1" page="1" pageScale="1" pageWidth="850" pageHeight="1100" math="0" shadow="0">
      <root>
        <mxCell id="0" />
        <mxCell id="1" parent="0" />
        <mxCell id="c-DaxxGaYGkpmtFAVpGv-2" value="AA&lt;div&gt;(Acts as Home Button)&lt;/div&gt;" style="whiteSpace=wrap;html=1;aspect=fixed;perimeterSpacing=0;rounded=1;" vertex="1" parent="1">
          <mxGeometry x="40" y="10" width="80" height="80" as="geometry" />
        </mxCell>
        <mxCell id="c-DaxxGaYGkpmtFAVpGv-3" value="" style="verticalLabelPosition=bottom;verticalAlign=top;html=1;shape=mxgraph.basic.sun" vertex="1" parent="1">
          <mxGeometry x="670" y="20" width="60" height="60" as="geometry" />
        </mxCell>
        <mxCell id="c-DaxxGaYGkpmtFAVpGv-4" value="" style="line;strokeWidth=2;html=1;" vertex="1" parent="1">
          <mxGeometry x="800" y="35" width="30" height="10" as="geometry" />
        </mxCell>
        <mxCell id="c-DaxxGaYGkpmtFAVpGv-5" value="" style="line;strokeWidth=2;html=1;" vertex="1" parent="1">
          <mxGeometry x="800" y="45" width="30" height="10" as="geometry" />
        </mxCell>
        <mxCell id="c-DaxxGaYGkpmtFAVpGv-6" value="" style="line;strokeWidth=2;html=1;" vertex="1" parent="1">
          <mxGeometry x="800" y="55" width="30" height="10" as="geometry" />
        </mxCell>
        <mxCell id="c-DaxxGaYGkpmtFAVpGv-7" value="Andrew Angus" style="text;html=1;align=center;verticalAlign=middle;whiteSpace=wrap;rounded=0;" vertex="1" parent="1">
          <mxGeometry x="40" y="120" width="280" height="30" as="geometry" />
        </mxCell>
        <mxCell id="c-DaxxGaYGkpmtFAVpGv-8" value="Insert Signature Here" style="rounded=0;whiteSpace=wrap;html=1;" vertex="1" parent="1">
          <mxGeometry x="80" y="160" width="200" height="40" as="geometry" />
        </mxCell>
        <mxCell id="c-DaxxGaYGkpmtFAVpGv-10" value="Full Stack Developer" style="text;html=1;align=center;verticalAlign=middle;whiteSpace=wrap;rounded=0;" vertex="1" parent="1">
          <mxGeometry x="80" y="210" width="200" height="30" as="geometry" />
        </mxCell>
        <mxCell id="c-DaxxGaYGkpmtFAVpGv-12" value="Based in Austin, Texas who is able to construct fullstack applications from scratch to production. Currently I&#39;m building some passion projects and looking to break into the industry" style="text;html=1;align=center;verticalAlign=middle;whiteSpace=wrap;rounded=0;" vertex="1" parent="1">
          <mxGeometry x="80" y="250" width="440" height="70" as="geometry" />
        </mxCell>
        <mxCell id="c-DaxxGaYGkpmtFAVpGv-14" value="Photo" style="rounded=0;whiteSpace=wrap;html=1;" vertex="1" parent="1">
          <mxGeometry x="600" y="120" width="240" height="240" as="geometry" />
        </mxCell>
        <mxCell id="c-DaxxGaYGkpmtFAVpGv-15" value="Front End Technology" style="rounded=0;whiteSpace=wrap;html=1;" vertex="1" parent="1">
          <mxGeometry x="25" y="400" width="800" height="240" as="geometry" />
        </mxCell>
        <mxCell id="c-DaxxGaYGkpmtFAVpGv-16" value="Tools" style="rounded=0;whiteSpace=wrap;html=1;" vertex="1" parent="1">
          <mxGeometry x="25" y="920" width="800" height="110" as="geometry" />
        </mxCell>
        <mxCell id="c-DaxxGaYGkpmtFAVpGv-17" value="Back End Technology" style="rounded=0;whiteSpace=wrap;html=1;" vertex="1" parent="1">
          <mxGeometry x="25" y="660" width="800" height="240" as="geometry" />
        </mxCell>
        <mxCell id="c-DaxxGaYGkpmtFAVpGv-18" value="Footer (Social Links) Andrew Angus Copywright" style="rounded=0;whiteSpace=wrap;html=1;" vertex="1" parent="1">
          <mxGeometry y="1050" width="850" height="50" as="geometry" />
        </mxCell>
        <mxCell id="c-DaxxGaYGkpmtFAVpGv-19" value="About Me&lt;br&gt;&lt;br&gt;&lt;br&gt;&lt;br&gt;&lt;div&gt;Projects&lt;/div&gt;&lt;div&gt;&lt;br&gt;&lt;/div&gt;&lt;div&gt;&lt;br&gt;&lt;/div&gt;&lt;div&gt;&lt;br&gt;&lt;/div&gt;&lt;div&gt;Contact Me&lt;/div&gt;" style="rounded=0;whiteSpace=wrap;html=1;spacingTop=0;spacingBottom=0;" vertex="1" parent="1">
          <mxGeometry x="850" width="310" height="360" as="geometry" />
        </mxCell>
        <mxCell id="c-DaxxGaYGkpmtFAVpGv-20" value="" style="line;strokeWidth=2;html=1;" vertex="1" parent="1">
          <mxGeometry x="860" y="5" width="30" height="10" as="geometry" />
        </mxCell>
        <mxCell id="c-DaxxGaYGkpmtFAVpGv-21" value="" style="line;strokeWidth=2;html=1;" vertex="1" parent="1">
          <mxGeometry x="860" y="15" width="30" height="10" as="geometry" />
        </mxCell>
        <mxCell id="c-DaxxGaYGkpmtFAVpGv-22" value="" style="line;strokeWidth=2;html=1;" vertex="1" parent="1">
          <mxGeometry x="860" y="25" width="30" height="10" as="geometry" />
        </mxCell>
      </root>
    </mxGraphModel>
  </diagram>
</mxfile>
